<?xml version="1.0" encoding="UTF-8" standalone="no"?>
<!-- Created with Inkscape (http://www.inkscape.org/) -->

<svg
   xmlns:dc="http://purl.org/dc/elements/1.1/"
   xmlns:cc="http://creativecommons.org/ns#"
   xmlns:rdf="http://www.w3.org/1999/02/22-rdf-syntax-ns#"
   xmlns:svg="http://www.w3.org/2000/svg"
   xmlns="http://www.w3.org/2000/svg"
   xmlns:sodipodi="http://sodipodi.sourceforge.net/DTD/sodipodi-0.dtd"
   xmlns:inkscape="http://www.inkscape.org/namespaces/inkscape"
   version="1.1"
   id="svg112"
   width="1227"
   height="736"
   viewBox="0 0 1227 736"
   sodipodi:docname="inkscape-banner-bg.svg"
   inkscape:export-filename="/home/nchiang/repos/hist-website/build/img/banner_bg_white.png"
   inkscape:export-xdpi="300"
   inkscape:export-ydpi="300"
   inkscape:version="0.92.3 (2405546, 2018-03-11)">
  <metadata
     id="metadata118">
    <rdf:RDF>
      <cc:Work
         rdf:about="">
        <dc:format>image/svg+xml</dc:format>
        <dc:type
           rdf:resource="http://purl.org/dc/dcmitype/StillImage" />
        <dc:title></dc:title>
      </cc:Work>
    </rdf:RDF>
  </metadata>
  <defs
     id="defs116" />
  <sodipodi:namedview
     pagecolor="#f5f5f5"
     bordercolor="#666666"
     borderopacity="1"
     objecttolerance="10"
     gridtolerance="10"
     guidetolerance="10"
     inkscape:pageopacity="1"
     inkscape:pageshadow="2"
     inkscape:window-width="1600"
     inkscape:window-height="845"
     id="namedview114"
     showgrid="false"
     inkscape:zoom="0.4409128"
     inkscape:cx="564.9958"
     inkscape:cy="537.05733"
     inkscape:window-x="0"
     inkscape:window-y="27"
     inkscape:window-maximized="1"
     inkscape:current-layer="svg112" />
  <path
     style="opacity:1;fill:#ffffff;fill-opacity:1;stroke:none;stroke-width:1px;stroke-linecap:butt;stroke-linejoin:miter;stroke-opacity:1"
     d="m 1227.5237,-12 c 0,0 6.3254,77.80018 -52.1867,114.17553 -58.5121,36.37534 -207.58158,13.24719 -291.81421,40.47094 -31.76852,10.2675 -69.39674,31.141 -97.4035,62.91389 -28.00676,31.77289 -19.92054,78.23831 -47.73442,128.73231 -27.81388,50.494 -81.79617,73.07202 -145.13791,86.60163 C 529.90522,434.42391 447.5816,415.10557 375.13914,393.23456 302.69668,371.36355 236.3423,350.27158 188.6257,344.31134 140.9091,338.3511 110.9562,339.17044 90.882,341.50947 70.8078,343.8485 49.4961,349.93129 35.1476,355.94308 20.7991,361.95487 6.2804,373.58415 6.2804,373.58415 L 5.8001,-13.60376 Z"
     id="path931"
     inkscape:connector-curvature="0"
     sodipodi:nodetypes="czszzzzzzzccc"
     inkscape:export-xdpi="100"
     inkscape:export-ydpi="100" />
</svg>
